<?xml version="1.0" encoding="UTF-8"?>
<svg xmlns="http://www.w3.org/2000/svg" xmlns:xlink="http://www.w3.org/1999/xlink" width="768pt" height="767.999994pt" viewBox="0 0 768 767.999994" version="1.2">
<defs>
<clipPath id="clip1">
  <path d="M 257.796875 258 L 510 258 L 510 510.980469 L 257.796875 510.980469 Z M 257.796875 258 "/>
</clipPath>
</defs>
<g id="surface1">
<g clip-path="url(#clip1)" clip-rule="nonzero">
<path style=" stroke:none;fill-rule:nonzero;fill:rgb(100%,100%,100%);fill-opacity:1;" d="M 424.027344 384.230469 L 508.320312 299.902344 C 510.539062 297.679688 510.539062 294.089844 508.320312 291.871094 L 476.210938 259.742188 C 475.144531 258.675781 473.710938 258.078125 472.199219 258.078125 C 470.691406 258.078125 469.246094 258.675781 468.1875 259.742188 L 383.890625 344.074219 L 299.597656 259.742188 C 297.46875 257.613281 293.699219 257.613281 291.570312 259.742188 L 259.457031 291.871094 C 258.390625 292.9375 257.792969 294.378906 257.792969 295.886719 C 257.792969 297.390625 258.390625 298.839844 259.457031 299.902344 L 343.75 384.230469 L 259.457031 468.566406 C 258.390625 469.636719 257.792969 471.070312 257.792969 472.582031 C 257.792969 474.09375 258.390625 475.535156 259.457031 476.597656 L 291.570312 508.71875 C 292.675781 509.828125 294.128906 510.382812 295.582031 510.382812 C 297.035156 510.382812 298.492188 509.828125 299.597656 508.71875 L 383.890625 424.390625 L 468.1875 508.71875 C 470.40625 510.941406 473.992188 510.941406 476.210938 508.71875 L 508.320312 476.597656 C 510.539062 474.378906 510.539062 470.789062 508.320312 468.566406 Z M 424.027344 384.230469 "/>
</g>
</g>
</svg>
