<?xml version="1.0" encoding="UTF-8"?>
<svg xmlns="http://www.w3.org/2000/svg" xmlns:xlink="http://www.w3.org/1999/xlink" width="768pt" height="767.999994pt" viewBox="0 0 768 767.999994" version="1.2">
<defs>
<clipPath id="clip1">
  <path d="M 276.828125 194.3125 L 491.328125 194.3125 L 491.328125 573.8125 L 276.828125 573.8125 Z M 276.828125 194.3125 "/>
</clipPath>
</defs>
<g id="surface1">
<g clip-path="url(#clip1)" clip-rule="nonzero">
<path style=" stroke:none;fill-rule:nonzero;fill:rgb(100%,100%,100%);fill-opacity:1;" d="M 426.488281 194.394531 C 399.507812 194.394531 376.199219 202.613281 359.84375 218.859375 C 343.484375 235.101562 334.578125 258.914062 334.578125 288.132812 L 334.578125 326.335938 L 285.078125 326.335938 C 284.535156 326.335938 284 326.390625 283.46875 326.496094 C 282.9375 326.601562 282.417969 326.757812 281.917969 326.964844 C 281.417969 327.171875 280.941406 327.425781 280.492188 327.726562 C 280.042969 328.027344 279.625 328.371094 279.242188 328.753906 C 278.859375 329.136719 278.519531 329.550781 278.21875 330.003906 C 277.914062 330.453125 277.660156 330.929688 277.453125 331.429688 C 277.246094 331.929688 277.089844 332.445312 276.984375 332.976562 C 276.878906 333.503906 276.828125 334.042969 276.828125 334.582031 L 276.828125 400.554688 C 276.828125 401.097656 276.878906 401.632812 276.984375 402.164062 C 277.089844 402.695312 277.246094 403.210938 277.453125 403.710938 C 277.664062 404.210938 277.917969 404.6875 278.21875 405.136719 C 278.519531 405.585938 278.859375 406.003906 279.242188 406.386719 C 279.625 406.769531 280.042969 407.109375 280.492188 407.414062 C 280.945312 407.714844 281.417969 407.96875 281.917969 408.175781 C 282.421875 408.382812 282.9375 408.539062 283.46875 408.644531 C 284 408.75 284.535156 408.800781 285.078125 408.800781 L 334.578125 408.800781 L 334.578125 565.484375 C 334.578125 566.027344 334.628906 566.5625 334.734375 567.09375 C 334.839844 567.625 334.996094 568.140625 335.203125 568.640625 C 335.414062 569.140625 335.667969 569.617188 335.96875 570.066406 C 336.269531 570.515625 336.609375 570.933594 336.992188 571.316406 C 337.375 571.699219 337.792969 572.042969 338.242188 572.34375 C 338.695312 572.644531 339.167969 572.898438 339.667969 573.105469 C 340.171875 573.3125 340.6875 573.46875 341.21875 573.574219 C 341.75 573.679688 342.285156 573.730469 342.828125 573.730469 L 408.828125 573.730469 C 409.367188 573.730469 409.90625 573.679688 410.4375 573.574219 C 410.96875 573.46875 411.484375 573.3125 411.984375 573.101562 C 412.484375 572.894531 412.960938 572.640625 413.410156 572.339844 C 413.859375 572.039062 414.277344 571.699219 414.660156 571.316406 C 415.042969 570.933594 415.386719 570.515625 415.6875 570.066406 C 415.988281 569.617188 416.242188 569.140625 416.449219 568.640625 C 416.65625 568.140625 416.8125 567.625 416.917969 567.09375 C 417.023438 566.5625 417.078125 566.027344 417.078125 565.484375 L 417.078125 408.800781 L 474.828125 408.800781 C 475.324219 408.800781 475.820312 408.757812 476.308594 408.667969 C 476.800781 408.578125 477.277344 408.445312 477.742188 408.269531 C 478.210938 408.09375 478.65625 407.875 479.082031 407.621094 C 479.507812 407.363281 479.910156 407.070312 480.285156 406.738281 C 480.65625 406.410156 481 406.050781 481.304688 405.660156 C 481.613281 405.269531 481.886719 404.851562 482.117188 404.414062 C 482.351562 403.972656 482.542969 403.515625 482.695312 403.039062 C 482.84375 402.566406 482.949219 402.082031 483.011719 401.585938 L 491.261719 335.613281 C 491.335938 335.035156 491.347656 334.453125 491.296875 333.871094 C 491.246094 333.285156 491.132812 332.714844 490.960938 332.15625 C 490.789062 331.597656 490.558594 331.0625 490.273438 330.550781 C 489.988281 330.042969 489.652344 329.566406 489.261719 329.128906 C 488.875 328.691406 488.449219 328.296875 487.976562 327.949219 C 487.507812 327.601562 487.003906 327.308594 486.46875 327.066406 C 485.9375 326.828125 485.382812 326.644531 484.8125 326.523438 C 484.242188 326.398438 483.660156 326.335938 483.078125 326.335938 L 417.078125 326.335938 L 417.078125 293.351562 C 417.078125 284.140625 424.363281 276.859375 433.578125 276.859375 L 483.078125 276.859375 C 483.617188 276.859375 484.15625 276.804688 484.6875 276.699219 C 485.21875 276.59375 485.734375 276.4375 486.234375 276.230469 C 486.734375 276.023438 487.210938 275.769531 487.660156 275.46875 C 488.109375 275.167969 488.527344 274.824219 488.910156 274.441406 C 489.292969 274.058594 489.636719 273.644531 489.9375 273.191406 C 490.238281 272.742188 490.492188 272.265625 490.699219 271.765625 C 490.90625 271.265625 491.0625 270.75 491.167969 270.21875 C 491.273438 269.6875 491.328125 269.152344 491.328125 268.613281 L 491.328125 205.492188 C 491.324219 204.996094 491.28125 204.503906 491.191406 204.015625 C 491.101562 203.527344 490.96875 203.054688 490.796875 202.589844 C 490.621094 202.125 490.40625 201.679688 490.148438 201.257812 C 489.894531 200.832031 489.605469 200.433594 489.277344 200.058594 C 488.949219 199.6875 488.59375 199.347656 488.203125 199.039062 C 487.816406 198.730469 487.402344 198.460938 486.964844 198.226562 C 486.527344 197.992188 486.074219 197.800781 485.601562 197.648438 C 485.128906 197.496094 484.648438 197.390625 484.15625 197.324219 C 476.867188 196.359375 450.546875 194.394531 426.488281 194.394531 Z M 426.488281 210.886719 C 446.597656 210.886719 466.042969 212.496094 474.828125 213.316406 L 474.828125 260.363281 L 433.578125 260.363281 C 415.449219 260.363281 400.578125 275.230469 400.578125 293.351562 L 400.578125 334.582031 C 400.578125 335.125 400.628906 335.660156 400.734375 336.191406 C 400.839844 336.722656 400.996094 337.238281 401.203125 337.738281 C 401.414062 338.238281 401.667969 338.714844 401.96875 339.164062 C 402.269531 339.617188 402.609375 340.03125 402.992188 340.414062 C 403.375 340.796875 403.792969 341.140625 404.242188 341.441406 C 404.695312 341.742188 405.167969 341.996094 405.667969 342.203125 C 406.171875 342.410156 406.6875 342.566406 407.21875 342.671875 C 407.75 342.777344 408.285156 342.828125 408.828125 342.828125 L 473.730469 342.828125 L 467.542969 392.308594 L 408.828125 392.308594 C 408.285156 392.308594 407.75 392.363281 407.21875 392.46875 C 406.6875 392.574219 406.167969 392.730469 405.667969 392.9375 C 405.167969 393.144531 404.691406 393.398438 404.242188 393.699219 C 403.792969 394 403.375 394.34375 402.992188 394.726562 C 402.609375 395.109375 402.269531 395.523438 401.964844 395.972656 C 401.664062 396.425781 401.410156 396.898438 401.203125 397.398438 C 400.996094 397.898438 400.839844 398.414062 400.734375 398.945312 C 400.628906 399.476562 400.578125 400.015625 400.578125 400.554688 L 400.578125 557.238281 L 351.078125 557.238281 L 351.078125 400.554688 C 351.078125 400.015625 351.023438 399.476562 350.917969 398.945312 C 350.8125 398.414062 350.65625 397.898438 350.449219 397.398438 C 350.242188 396.898438 349.988281 396.425781 349.6875 395.972656 C 349.382812 395.523438 349.042969 395.105469 348.660156 394.722656 C 348.277344 394.339844 347.859375 394 347.410156 393.699219 C 346.960938 393.398438 346.484375 393.144531 345.984375 392.9375 C 345.484375 392.730469 344.96875 392.574219 344.4375 392.46875 C 343.90625 392.363281 343.367188 392.308594 342.828125 392.308594 L 293.328125 392.308594 L 293.328125 342.828125 L 342.828125 342.828125 C 343.367188 342.828125 343.90625 342.777344 344.4375 342.671875 C 344.96875 342.566406 345.484375 342.410156 345.984375 342.203125 C 346.484375 341.996094 346.960938 341.742188 347.410156 341.441406 C 347.859375 341.140625 348.277344 340.796875 348.660156 340.414062 C 349.042969 340.03125 349.386719 339.613281 349.6875 339.164062 C 349.988281 338.714844 350.242188 338.238281 350.449219 337.738281 C 350.65625 337.238281 350.8125 336.722656 350.917969 336.191406 C 351.023438 335.660156 351.078125 335.125 351.078125 334.582031 L 351.078125 288.132812 C 351.078125 262.199219 358.667969 243.269531 371.476562 230.550781 C 384.28125 217.835938 402.804688 210.886719 426.488281 210.886719 Z M 426.488281 210.886719 "/>
</g>
</g>
</svg>
