<?xml version="1.0" encoding="UTF-8"?>
<svg xmlns="http://www.w3.org/2000/svg" xmlns:xlink="http://www.w3.org/1999/xlink" width="768pt" height="767.999994pt" viewBox="0 0 768 767.999994" version="1.2">
<g id="surface1">
<path style=" stroke:none;fill-rule:nonzero;fill:rgb(0%,80.778503%,81.959534%);fill-opacity:1;" d="M 384.894531 562.519531 C 383.726562 562.519531 382.601562 562.296875 381.523438 561.847656 C 380.445312 561.402344 379.496094 560.765625 378.671875 559.9375 L 236.164062 417.8125 C 234.765625 416.777344 233.433594 415.65625 232.175781 414.457031 C 230.902344 413.1875 229.664062 411.890625 228.457031 410.5625 C 227.246094 409.234375 226.070312 407.878906 224.925781 406.492188 C 223.78125 405.109375 222.671875 403.695312 221.597656 402.257812 C 220.519531 400.820312 219.480469 399.359375 218.472656 397.871094 C 217.46875 396.382812 216.5 394.875 215.566406 393.339844 C 214.632812 391.804688 213.734375 390.25 212.878906 388.671875 C 212.019531 387.097656 211.199219 385.5 210.414062 383.882812 C 209.632812 382.265625 208.890625 380.632812 208.1875 378.980469 C 207.484375 377.328125 206.820312 375.660156 206.195312 373.976562 C 205.570312 372.292969 204.988281 370.597656 204.445312 368.882812 C 203.902344 367.171875 203.402344 365.449219 202.941406 363.714844 C 202.480469 361.976562 202.0625 360.230469 201.6875 358.476562 C 201.3125 356.71875 200.976562 354.957031 200.6875 353.183594 C 200.394531 351.414062 200.144531 349.636719 199.9375 347.851562 C 199.734375 346.066406 199.570312 344.28125 199.449219 342.488281 C 199.328125 340.699219 199.25 338.902344 199.214844 337.109375 C 199.183594 335.3125 199.191406 333.519531 199.242188 331.722656 C 199.292969 329.929688 199.386719 328.136719 199.523438 326.347656 C 199.664062 324.554688 199.84375 322.769531 200.066406 320.988281 C 200.289062 319.207031 200.554688 317.429688 200.863281 315.664062 C 201.171875 313.894531 201.523438 312.132812 201.914062 310.378906 C 202.308594 308.628906 202.742188 306.886719 203.21875 305.15625 C 203.695312 303.425781 204.210938 301.707031 204.769531 300 C 205.328125 298.292969 205.925781 296.601562 206.566406 294.921875 C 207.207031 293.246094 207.886719 291.582031 208.605469 289.9375 C 209.324219 288.292969 210.085938 286.664062 210.882812 285.058594 C 211.679688 283.449219 212.515625 281.859375 213.386719 280.289062 C 214.261719 278.722656 215.171875 277.175781 216.121094 275.648438 C 217.066406 274.125 218.050781 272.625 219.070312 271.144531 C 220.089844 269.667969 221.144531 268.214844 222.234375 266.785156 C 223.324219 265.359375 224.449219 263.960938 225.605469 262.585938 C 226.761719 261.210938 227.949219 259.867188 229.171875 258.550781 C 230.394531 257.234375 231.644531 255.945312 232.925781 254.691406 C 234.210938 253.433594 235.523438 252.207031 236.863281 251.015625 C 238.207031 249.820312 239.574219 248.660156 240.972656 247.53125 C 242.371094 246.40625 243.792969 245.308594 245.242188 244.25 C 246.691406 243.191406 248.167969 242.167969 249.667969 241.175781 C 251.164062 240.1875 252.6875 239.234375 254.230469 238.320312 C 255.777344 237.402344 257.339844 236.523438 258.929688 235.683594 C 260.515625 234.84375 262.121094 234.039062 263.746094 233.273438 C 265.371094 232.511719 267.011719 231.785156 268.671875 231.101562 C 270.332031 230.414062 272.007812 229.769531 273.699219 229.164062 C 275.390625 228.558594 277.09375 227.996094 278.8125 227.472656 C 280.53125 226.949219 282.261719 226.464844 284 226.027344 C 285.742188 225.585938 287.492188 225.1875 289.253906 224.832031 C 291.011719 224.472656 292.78125 224.160156 294.554688 223.886719 C 296.332031 223.617188 298.113281 223.386719 299.898438 223.199219 C 301.683594 223.011719 303.472656 222.871094 305.265625 222.769531 C 307.058594 222.667969 308.855469 222.609375 310.652344 222.597656 C 312.445312 222.582031 314.242188 222.609375 316.035156 222.679688 C 317.832031 222.753906 319.621094 222.867188 321.410156 223.023438 C 323.199219 223.179688 324.984375 223.378906 326.765625 223.625 C 328.542969 223.867188 330.316406 224.152344 332.082031 224.480469 C 333.847656 224.808594 335.605469 225.175781 337.351562 225.589844 C 339.101562 226 340.839844 226.453125 342.5625 226.949219 C 344.289062 227.445312 346.003906 227.980469 347.703125 228.558594 C 349.40625 229.136719 351.089844 229.753906 352.761719 230.410156 C 354.433594 231.070312 356.085938 231.765625 357.722656 232.503906 C 359.363281 233.242188 360.980469 234.019531 362.582031 234.832031 C 364.179688 235.648438 365.761719 236.5 367.320312 237.390625 C 368.878906 238.28125 370.417969 239.210938 371.933594 240.175781 C 373.445312 241.140625 374.9375 242.140625 376.40625 243.175781 C 377.871094 244.210938 379.3125 245.28125 380.726562 246.386719 C 382.144531 247.492188 383.53125 248.628906 384.894531 249.800781 C 386.253906 248.636719 387.644531 247.503906 389.058594 246.40625 C 390.476562 245.304688 391.917969 244.242188 393.386719 243.210938 C 394.851562 242.179688 396.34375 241.1875 397.859375 240.226562 C 399.371094 239.269531 400.910156 238.347656 402.46875 237.460938 C 404.027344 236.578125 405.605469 235.730469 407.207031 234.917969 C 408.804688 234.109375 410.421875 233.339844 412.058594 232.605469 C 413.695312 231.875 415.347656 231.183594 417.015625 230.527344 C 418.6875 229.875 420.371094 229.261719 422.070312 228.691406 C 423.769531 228.117188 425.480469 227.585938 427.203125 227.097656 C 428.929688 226.605469 430.664062 226.15625 432.410156 225.75 C 434.15625 225.339844 435.910156 224.976562 437.671875 224.652344 C 439.433594 224.328125 441.207031 224.046875 442.980469 223.808594 C 444.757812 223.570312 446.539062 223.371094 448.324219 223.21875 C 450.113281 223.066406 451.902344 222.953125 453.691406 222.886719 C 455.484375 222.816406 457.277344 222.792969 459.066406 222.808594 C 460.859375 222.828125 462.652344 222.886719 464.441406 222.992188 C 466.230469 223.09375 468.015625 223.238281 469.800781 223.429688 C 471.582031 223.617188 473.359375 223.847656 475.132812 224.121094 C 476.902344 224.394531 478.667969 224.710938 480.425781 225.070312 C 482.179688 225.429688 483.925781 225.828125 485.664062 226.269531 C 487.402344 226.710938 489.128906 227.195312 490.84375 227.71875 C 492.554688 228.242188 494.257812 228.808594 495.945312 229.414062 C 497.632812 230.019531 499.304688 230.664062 500.960938 231.351562 C 502.617188 232.035156 504.253906 232.761719 505.875 233.527344 C 507.5 234.289062 509.101562 235.09375 510.683594 235.933594 C 512.265625 236.773438 513.828125 237.652344 515.371094 238.566406 C 516.910156 239.484375 518.429688 240.433594 519.925781 241.421875 C 521.421875 242.410156 522.890625 243.433594 524.339844 244.492188 C 525.785156 245.550781 527.207031 246.644531 528.601562 247.769531 C 529.996094 248.898438 531.359375 250.058594 532.699219 251.25 C 534.039062 252.441406 535.347656 253.664062 536.628906 254.917969 C 537.910156 256.171875 539.15625 257.457031 540.375 258.773438 C 541.597656 260.085938 542.78125 261.429688 543.9375 262.800781 C 545.089844 264.171875 546.210938 265.570312 547.300781 266.992188 C 548.386719 268.417969 549.441406 269.867188 550.457031 271.34375 C 551.476562 272.820312 552.460938 274.316406 553.40625 275.839844 C 554.351562 277.363281 555.261719 278.90625 556.132812 280.472656 C 557.007812 282.035156 557.839844 283.621094 558.636719 285.226562 C 559.433594 286.832031 560.191406 288.457031 560.910156 290.097656 C 561.628906 291.742188 562.308594 293.398438 562.949219 295.074219 C 563.589844 296.746094 564.1875 298.4375 564.746094 300.140625 C 565.304688 301.84375 565.824219 303.558594 566.300781 305.285156 C 566.777344 307.015625 567.210938 308.753906 567.605469 310.5 C 568 312.25 568.347656 314.007812 568.660156 315.773438 C 568.96875 317.535156 569.234375 319.308594 569.460938 321.085938 C 569.683594 322.867188 569.867188 324.648438 570.003906 326.433594 C 570.144531 328.222656 570.242188 330.011719 570.292969 331.800781 C 570.347656 333.59375 570.359375 335.386719 570.324219 337.175781 C 570.292969 338.96875 570.21875 340.761719 570.101562 342.546875 C 569.984375 344.335938 569.824219 346.121094 569.617188 347.902344 C 569.414062 349.683594 569.167969 351.457031 568.882812 353.226562 C 568.59375 354.996094 568.261719 356.757812 567.890625 358.507812 C 567.515625 360.261719 567.101562 362.007812 566.648438 363.738281 C 566.191406 365.472656 565.695312 367.195312 565.15625 368.902344 C 564.617188 370.613281 564.039062 372.308594 563.417969 373.992188 C 562.796875 375.671875 562.140625 377.339844 561.441406 378.988281 C 560.742188 380.640625 560.003906 382.273438 559.226562 383.886719 C 558.445312 385.5 557.632812 387.097656 556.777344 388.671875 C 555.921875 390.25 555.03125 391.804688 554.105469 393.335938 C 553.175781 394.871094 552.210938 396.378906 551.210938 397.867188 C 550.210938 399.355469 549.175781 400.816406 548.105469 402.253906 C 547.035156 403.691406 545.929688 405.105469 544.792969 406.488281 C 543.652344 407.875 542.484375 409.230469 541.28125 410.558594 C 540.078125 411.886719 538.84375 413.1875 537.578125 414.457031 C 536.34375 415.648438 535.039062 416.757812 533.65625 417.777344 L 532.023438 419.0625 L 391.132812 559.9375 C 390.308594 560.765625 389.351562 561.40625 388.273438 561.851562 C 387.191406 562.300781 386.0625 562.523438 384.894531 562.519531 Z M 311.644531 240.292969 C 309.320312 240.292969 306.996094 240.378906 304.675781 240.546875 C 302.355469 240.71875 300.042969 240.972656 297.742188 241.316406 C 295.441406 241.65625 293.15625 242.082031 290.886719 242.589844 C 288.617188 243.097656 286.367188 243.691406 284.140625 244.363281 C 281.914062 245.039062 279.71875 245.792969 277.546875 246.632812 C 275.375 247.46875 273.238281 248.382812 271.136719 249.375 C 269.03125 250.371094 266.96875 251.441406 264.945312 252.585938 C 262.917969 253.734375 260.941406 254.953125 259.003906 256.242188 C 257.070312 257.535156 255.1875 258.894531 253.351562 260.324219 C 251.515625 261.757812 249.738281 263.253906 248.011719 264.8125 C 246.289062 266.375 244.625 268 243.019531 269.683594 C 241.414062 271.367188 239.875 273.105469 238.398438 274.90625 C 236.921875 276.703125 235.515625 278.550781 234.175781 280.453125 C 232.832031 282.355469 231.566406 284.300781 230.367188 286.296875 C 229.171875 288.292969 228.050781 290.328125 227.003906 292.40625 C 225.957031 294.480469 224.988281 296.59375 224.097656 298.742188 C 223.207031 300.890625 222.394531 303.070312 221.664062 305.277344 C 220.933594 307.488281 220.289062 309.71875 219.722656 311.976562 C 219.15625 314.230469 218.671875 316.503906 218.273438 318.796875 C 217.875 321.085938 217.5625 323.390625 217.332031 325.707031 C 217.105469 328.019531 216.960938 330.339844 216.902344 332.664062 C 216.847656 334.992188 216.875 337.316406 216.988281 339.636719 C 217.101562 341.960938 217.300781 344.277344 217.582031 346.585938 C 217.867188 348.894531 218.234375 351.1875 218.6875 353.46875 C 219.140625 355.75 219.679688 358.011719 220.296875 360.253906 C 220.917969 362.496094 221.621094 364.710938 222.402344 366.902344 C 223.1875 369.09375 224.046875 371.25 224.992188 373.378906 C 225.933594 375.503906 226.953125 377.59375 228.046875 379.644531 C 229.144531 381.695312 230.3125 383.707031 231.558594 385.671875 C 232.800781 387.636719 234.117188 389.554688 235.5 391.421875 C 236.886719 393.292969 238.339844 395.105469 239.855469 396.867188 C 241.375 398.628906 242.957031 400.332031 244.601562 401.976562 C 245.28125 402.613281 246.003906 403.199219 246.765625 403.734375 C 247.679688 404.4375 248.523438 405.140625 249.488281 405.933594 L 384.839844 541.257812 L 519.824219 406.300781 C 519.945312 406.167969 520.074219 406.046875 520.210938 405.933594 C 521.105469 405.140625 522.054688 404.421875 522.988281 403.699219 C 523.730469 403.164062 524.433594 402.578125 525.097656 401.941406 C 526.253906 400.863281 527.386719 399.75 528.488281 398.613281 C 529.589844 397.476562 530.664062 396.308594 531.707031 395.117188 C 532.75 393.925781 533.765625 392.707031 534.75 391.464844 C 535.730469 390.222656 536.683594 388.957031 537.601562 387.664062 C 538.523438 386.375 539.410156 385.0625 540.261719 383.726562 C 541.117188 382.390625 541.933594 381.035156 542.71875 379.660156 C 543.507812 378.285156 544.257812 376.886719 544.972656 375.472656 C 545.6875 374.0625 546.367188 372.628906 547.011719 371.183594 C 547.65625 369.734375 548.261719 368.269531 548.832031 366.792969 C 549.402344 365.3125 549.9375 363.820312 550.429688 362.316406 C 550.925781 360.8125 551.382812 359.296875 551.804688 357.765625 C 552.222656 356.238281 552.605469 354.703125 552.945312 353.15625 C 553.289062 351.605469 553.589844 350.050781 553.855469 348.488281 C 554.121094 346.929688 554.34375 345.359375 554.53125 343.785156 C 554.714844 342.210938 554.863281 340.636719 554.96875 339.054688 C 555.074219 337.472656 555.140625 335.890625 555.167969 334.304688 C 555.195312 332.722656 555.183594 331.136719 555.132812 329.554688 C 555.078125 327.96875 554.988281 326.390625 554.855469 324.808594 C 554.722656 323.230469 554.550781 321.65625 554.339844 320.085938 C 554.128906 318.515625 553.878906 316.953125 553.589844 315.394531 C 553.300781 313.835938 552.972656 312.285156 552.605469 310.746094 C 552.238281 309.203125 551.832031 307.671875 551.390625 306.148438 C 550.945312 304.628906 550.464844 303.121094 549.945312 301.625 C 549.425781 300.125 548.867188 298.644531 548.273438 297.175781 C 547.679688 295.703125 547.050781 294.25 546.382812 292.8125 C 545.714844 291.375 545.011719 289.957031 544.277344 288.554688 C 543.539062 287.152344 542.765625 285.769531 541.957031 284.40625 C 541.148438 283.042969 540.308594 281.699219 539.433594 280.378906 C 538.558594 279.058594 537.652344 277.757812 536.710938 276.484375 C 535.769531 275.207031 534.800781 273.957031 533.796875 272.730469 C 532.792969 271.503906 531.761719 270.300781 530.699219 269.125 C 529.632812 267.953125 528.542969 266.804688 527.421875 265.683594 C 526.300781 264.5625 525.152344 263.472656 523.976562 262.40625 C 522.800781 261.34375 521.601562 260.3125 520.375 259.308594 C 519.148438 258.308594 517.894531 257.335938 516.617188 256.394531 C 515.34375 255.457031 514.042969 254.550781 512.722656 253.675781 C 511.402344 252.800781 510.058594 251.957031 508.695312 251.152344 C 507.332031 250.34375 505.949219 249.570312 504.546875 248.832031 C 503.144531 248.09375 501.722656 247.394531 500.285156 246.726562 C 498.847656 246.058594 497.394531 245.429688 495.925781 244.835938 C 494.457031 244.242188 492.972656 243.683594 491.472656 243.164062 C 489.976562 242.644531 488.46875 242.164062 486.945312 241.71875 C 485.425781 241.277344 483.894531 240.871094 482.351562 240.503906 C 480.808594 240.136719 479.257812 239.808594 477.703125 239.519531 C 476.144531 239.230469 474.578125 238.980469 473.007812 238.769531 C 471.4375 238.558594 469.863281 238.386719 468.28125 238.257812 C 466.703125 238.125 465.121094 238.03125 463.539062 237.980469 C 461.953125 237.925781 460.371094 237.914062 458.785156 237.941406 C 457.199219 237.96875 455.617188 238.035156 454.035156 238.140625 C 452.453125 238.25 450.875 238.394531 449.300781 238.578125 C 447.730469 238.765625 446.160156 238.992188 444.597656 239.253906 C 443.035156 239.519531 441.480469 239.820312 439.933594 240.164062 C 438.386719 240.507812 436.847656 240.886719 435.320312 241.304688 C 433.789062 241.726562 432.273438 242.183594 430.769531 242.679688 C 429.261719 243.175781 427.769531 243.707031 426.292969 244.277344 C 424.8125 244.847656 423.351562 245.453125 421.902344 246.097656 C 420.453125 246.742188 419.023438 247.421875 417.609375 248.136719 C 416.195312 248.851562 414.796875 249.601562 413.421875 250.386719 C 412.046875 251.171875 410.691406 251.992188 409.355469 252.847656 C 408.019531 253.699219 406.707031 254.585938 405.414062 255.503906 C 404.125 256.425781 402.855469 257.375 401.613281 258.359375 C 400.371094 259.339844 399.152344 260.355469 397.960938 261.398438 C 396.769531 262.441406 395.601562 263.515625 394.464844 264.617188 C 393.324219 265.71875 392.214844 266.851562 391.132812 268.007812 C 390.71875 268.398438 390.265625 268.75 389.785156 269.054688 C 389.300781 269.363281 388.792969 269.621094 388.261719 269.832031 C 387.730469 270.042969 387.183594 270.203125 386.621094 270.308594 C 386.058594 270.417969 385.492188 270.46875 384.917969 270.46875 C 384.347656 270.46875 383.78125 270.417969 383.21875 270.308594 C 382.65625 270.203125 382.109375 270.042969 381.578125 269.832031 C 381.046875 269.621094 380.539062 269.363281 380.054688 269.054688 C 379.574219 268.75 379.121094 268.398438 378.707031 268.007812 C 376.511719 265.808594 374.214844 263.726562 371.816406 261.753906 C 369.414062 259.785156 366.925781 257.933594 364.34375 256.210938 C 361.761719 254.484375 359.097656 252.890625 356.359375 251.425781 C 353.621094 249.964844 350.816406 248.640625 347.945312 247.453125 C 345.074219 246.265625 342.152344 245.226562 339.179688 244.328125 C 336.207031 243.429688 333.195312 242.679688 330.148438 242.078125 C 327.101562 241.476562 324.03125 241.027344 320.941406 240.730469 C 317.851562 240.429688 314.75 240.285156 311.644531 240.292969 Z M 311.644531 240.292969 "/>
</g>
</svg>
