<?xml version="1.0" encoding="UTF-8"?>
<svg xmlns="http://www.w3.org/2000/svg" xmlns:xlink="http://www.w3.org/1999/xlink" width="768pt" height="767.999994pt" viewBox="0 0 768 767.999994" version="1.2">
<defs>
<clipPath id="clip1">
  <path d="M 195.761719 195.761719 L 572.261719 195.761719 L 572.261719 572.261719 L 195.761719 572.261719 Z M 195.761719 195.761719 "/>
</clipPath>
</defs>
<g id="surface1">
<g clip-path="url(#clip1)" clip-rule="nonzero">
<path style=" stroke:none;fill-rule:nonzero;fill:rgb(100%,100%,100%);fill-opacity:1;" d="M 307 195.761719 C 245.667969 195.761719 195.761719 245.667969 195.761719 307 L 195.761719 461.023438 C 195.761719 522.351562 245.667969 572.261719 307 572.261719 L 461.023438 572.261719 C 522.351562 572.261719 572.261719 522.351562 572.261719 461.023438 L 572.261719 307 C 572.261719 245.667969 522.351562 195.761719 461.023438 195.761719 Z M 307 212.875 L 461.023438 212.875 C 513.101562 212.875 555.148438 254.917969 555.148438 307 L 555.148438 461.023438 C 555.148438 513.101562 513.101562 555.148438 461.023438 555.148438 L 307 555.148438 C 254.917969 555.148438 212.875 513.101562 212.875 461.023438 L 212.875 307 C 212.875 254.917969 254.917969 212.875 307 212.875 Z M 486.691406 264.214844 C 486.132812 264.214844 485.574219 264.242188 485.015625 264.296875 C 484.457031 264.351562 483.902344 264.433594 483.355469 264.542969 C 482.804688 264.652344 482.261719 264.789062 481.726562 264.953125 C 481.1875 265.113281 480.660156 265.304688 480.144531 265.519531 C 479.625 265.730469 479.121094 265.972656 478.625 266.234375 C 478.128906 266.5 477.652344 266.789062 477.183594 267.097656 C 476.71875 267.410156 476.269531 267.746094 475.835938 268.101562 C 475.402344 268.457031 474.988281 268.832031 474.589844 269.226562 C 474.195312 269.625 473.820312 270.039062 473.464844 270.472656 C 473.109375 270.90625 472.773438 271.355469 472.464844 271.820312 C 472.152344 272.285156 471.863281 272.765625 471.597656 273.261719 C 471.335938 273.753906 471.097656 274.261719 470.882812 274.78125 C 470.667969 275.296875 470.476562 275.824219 470.316406 276.359375 C 470.152344 276.898438 470.015625 277.441406 469.90625 277.988281 C 469.796875 278.539062 469.714844 279.09375 469.660156 279.652344 C 469.605469 280.210938 469.578125 280.769531 469.578125 281.328125 C 469.578125 281.890625 469.605469 282.449219 469.660156 283.007812 C 469.714844 283.5625 469.796875 284.117188 469.90625 284.667969 C 470.015625 285.21875 470.152344 285.761719 470.316406 286.296875 C 470.476562 286.832031 470.667969 287.359375 470.882812 287.878906 C 471.097656 288.394531 471.335938 288.902344 471.597656 289.394531 C 471.863281 289.890625 472.152344 290.371094 472.464844 290.835938 C 472.773438 291.300781 473.109375 291.753906 473.464844 292.1875 C 473.820312 292.617188 474.195312 293.035156 474.589844 293.429688 C 474.988281 293.828125 475.402344 294.203125 475.835938 294.558594 C 476.269531 294.914062 476.71875 295.246094 477.183594 295.558594 C 477.652344 295.871094 478.128906 296.15625 478.625 296.421875 C 479.121094 296.6875 479.625 296.925781 480.144531 297.140625 C 480.660156 297.355469 481.1875 297.542969 481.722656 297.707031 C 482.261719 297.867188 482.804688 298.003906 483.355469 298.113281 C 483.902344 298.222656 484.457031 298.304688 485.015625 298.359375 C 485.574219 298.414062 486.132812 298.441406 486.691406 298.441406 C 487.253906 298.441406 487.8125 298.414062 488.371094 298.359375 C 488.925781 298.304688 489.480469 298.222656 490.03125 298.113281 C 490.582031 298.003906 491.125 297.867188 491.660156 297.707031 C 492.195312 297.542969 492.722656 297.355469 493.242188 297.140625 C 493.757812 296.925781 494.265625 296.6875 494.757812 296.421875 C 495.253906 296.15625 495.734375 295.871094 496.199219 295.558594 C 496.667969 295.246094 497.117188 294.914062 497.550781 294.558594 C 497.984375 294.203125 498.398438 293.828125 498.792969 293.429688 C 499.191406 293.035156 499.566406 292.617188 499.921875 292.1875 C 500.277344 291.753906 500.609375 291.300781 500.921875 290.835938 C 501.234375 290.371094 501.519531 289.890625 501.785156 289.394531 C 502.050781 288.902344 502.289062 288.394531 502.503906 287.878906 C 502.71875 287.359375 502.90625 286.832031 503.070312 286.296875 C 503.230469 285.761719 503.367188 285.21875 503.476562 284.667969 C 503.585938 284.117188 503.667969 283.5625 503.722656 283.007812 C 503.777344 282.449219 503.804688 281.890625 503.804688 281.328125 C 503.804688 280.769531 503.777344 280.210938 503.722656 279.652344 C 503.667969 279.09375 503.585938 278.539062 503.476562 277.988281 C 503.367188 277.441406 503.230469 276.898438 503.070312 276.359375 C 502.90625 275.824219 502.71875 275.296875 502.503906 274.78125 C 502.289062 274.261719 502.050781 273.753906 501.785156 273.261719 C 501.519531 272.765625 501.234375 272.285156 500.921875 271.820312 C 500.609375 271.355469 500.277344 270.90625 499.921875 270.472656 C 499.566406 270.039062 499.191406 269.625 498.792969 269.226562 C 498.398438 268.832031 497.984375 268.457031 497.550781 268.101562 C 497.117188 267.746094 496.667969 267.410156 496.199219 267.097656 C 495.734375 266.789062 495.253906 266.5 494.757812 266.234375 C 494.265625 265.972656 493.757812 265.730469 493.242188 265.519531 C 492.722656 265.304688 492.195312 265.113281 491.660156 264.953125 C 491.125 264.789062 490.582031 264.652344 490.03125 264.542969 C 489.480469 264.433594 488.925781 264.351562 488.371094 264.296875 C 487.8125 264.242188 487.253906 264.214844 486.691406 264.214844 Z M 384.011719 289.886719 C 332.128906 289.886719 289.886719 332.128906 289.886719 384.011719 C 289.886719 435.894531 332.128906 478.136719 384.011719 478.136719 C 435.894531 478.136719 478.136719 435.894531 478.136719 384.011719 C 478.136719 332.128906 435.894531 289.886719 384.011719 289.886719 Z M 384.011719 307 C 426.644531 307 461.023438 341.378906 461.023438 384.011719 C 461.023438 426.644531 426.644531 461.023438 384.011719 461.023438 C 341.378906 461.023438 307 426.644531 307 384.011719 C 307 341.378906 341.378906 307 384.011719 307 Z M 384.011719 307 "/>
</g>
</g>
</svg>
