<?xml version="1.0" encoding="UTF-8"?>
<svg xmlns="http://www.w3.org/2000/svg" xmlns:xlink="http://www.w3.org/1999/xlink" width="768pt" height="767.999994pt" viewBox="0 0 768 767.999994" version="1.2">
<defs>
<clipPath id="clip1">
  <path d="M 182.40625 195.761719 L 585.90625 195.761719 L 585.90625 572.261719 L 182.40625 572.261719 Z M 182.40625 195.761719 "/>
</clipPath>
</defs>
<g id="surface1">
<g clip-path="url(#clip1)" clip-rule="nonzero">
<path style=" stroke:none;fill-rule:nonzero;fill:rgb(100%,100%,100%);fill-opacity:1;" d="M 235.199219 195.863281 C 220.414062 195.863281 207.46875 200.066406 197.992188 207.714844 C 188.515625 215.363281 182.726562 226.695312 182.726562 239.078125 C 182.726562 263.101562 204.257812 281.695312 232.71875 282.804688 C 233.523438 283.0625 234.351562 283.199219 235.199219 283.214844 C 250.5625 283.214844 263.640625 278.714844 272.984375 270.75 C 282.328125 262.785156 287.667969 251.296875 287.667969 239.078125 C 287.667969 238.917969 287.660156 238.757812 287.652344 238.597656 C 286.300781 214.425781 264.769531 195.863281 235.199219 195.863281 Z M 235.199219 213.167969 C 258.058594 213.167969 269.335938 224.386719 270.296875 239.300781 C 270.234375 246.585938 267.414062 252.777344 261.757812 257.597656 C 256.042969 262.472656 247.214844 265.910156 235.199219 265.910156 C 212.398438 265.910156 200.046875 253.542969 200.046875 239.078125 C 200.046875 231.847656 203.019531 225.898438 208.878906 221.171875 C 214.734375 216.445312 223.699219 213.167969 235.199219 213.167969 Z M 191.386719 300.832031 C 190.8125 300.832031 190.242188 300.886719 189.679688 301 C 189.113281 301.109375 188.566406 301.277344 188.035156 301.496094 C 187.503906 301.71875 187 301.988281 186.519531 302.304688 C 186.042969 302.625 185.597656 302.988281 185.191406 303.394531 C 184.785156 303.800781 184.421875 304.246094 184.101562 304.722656 C 183.78125 305.199219 183.511719 305.703125 183.292969 306.234375 C 183.074219 306.765625 182.90625 307.3125 182.792969 307.878906 C 182.683594 308.441406 182.625 309.011719 182.625 309.585938 L 182.625 563.503906 C 182.625 564.078125 182.683594 564.648438 182.792969 565.214844 C 182.90625 565.777344 183.074219 566.324219 183.292969 566.855469 C 183.511719 567.386719 183.785156 567.890625 184.101562 568.371094 C 184.421875 568.847656 184.785156 569.289062 185.191406 569.695312 C 185.597656 570.101562 186.042969 570.464844 186.519531 570.785156 C 187 571.105469 187.503906 571.375 188.035156 571.59375 C 188.566406 571.8125 189.113281 571.980469 189.679688 572.09375 C 190.242188 572.203125 190.8125 572.261719 191.386719 572.261719 L 279.007812 572.261719 C 279.585938 572.261719 280.15625 572.203125 280.71875 572.09375 C 281.28125 571.980469 281.832031 571.8125 282.363281 571.59375 C 282.894531 571.375 283.398438 571.105469 283.878906 570.785156 C 284.355469 570.464844 284.796875 570.101562 285.207031 569.695312 C 285.613281 569.289062 285.976562 568.847656 286.292969 568.367188 C 286.613281 567.890625 286.882812 567.386719 287.105469 566.855469 C 287.324219 566.324219 287.492188 565.777344 287.601562 565.210938 C 287.714844 564.648438 287.769531 564.078125 287.769531 563.503906 L 287.769531 309.585938 C 287.769531 309.011719 287.714844 308.441406 287.601562 307.878906 C 287.492188 307.3125 287.324219 306.765625 287.105469 306.234375 C 286.882812 305.703125 286.613281 305.199219 286.292969 304.722656 C 285.972656 304.242188 285.609375 303.800781 285.203125 303.394531 C 284.796875 302.988281 284.355469 302.625 283.875 302.304688 C 283.398438 301.988281 282.894531 301.71875 282.363281 301.496094 C 281.832031 301.277344 281.28125 301.109375 280.71875 301 C 280.152344 300.886719 279.585938 300.832031 279.007812 300.832031 Z M 322.820312 300.832031 C 322.246094 300.832031 321.675781 300.886719 321.109375 301 C 320.546875 301.109375 320 301.277344 319.464844 301.496094 C 318.933594 301.71875 318.429688 301.988281 317.953125 302.304688 C 317.472656 302.625 317.03125 302.988281 316.625 303.394531 C 316.21875 303.800781 315.855469 304.246094 315.535156 304.722656 C 315.214844 305.199219 314.945312 305.703125 314.726562 306.234375 C 314.503906 306.765625 314.339844 307.3125 314.226562 307.878906 C 314.113281 308.441406 314.058594 309.011719 314.058594 309.585938 L 314.058594 563.503906 C 314.058594 564.078125 314.113281 564.648438 314.226562 565.214844 C 314.339844 565.777344 314.503906 566.324219 314.726562 566.855469 C 314.945312 567.386719 315.214844 567.890625 315.535156 568.371094 C 315.855469 568.847656 316.21875 569.289062 316.625 569.695312 C 317.03125 570.101562 317.472656 570.464844 317.953125 570.785156 C 318.429688 571.105469 318.9375 571.375 319.46875 571.59375 C 320 571.8125 320.546875 571.980469 321.109375 572.09375 C 321.675781 572.203125 322.246094 572.261719 322.820312 572.261719 L 410.441406 572.261719 C 411.015625 572.261719 411.585938 572.203125 412.152344 572.09375 C 412.714844 571.980469 413.261719 571.8125 413.792969 571.59375 C 414.328125 571.375 414.832031 571.105469 415.308594 570.785156 C 415.789062 570.464844 416.230469 570.101562 416.636719 569.695312 C 417.042969 569.289062 417.40625 568.847656 417.726562 568.367188 C 418.046875 567.890625 418.316406 567.386719 418.535156 566.855469 C 418.757812 566.324219 418.921875 565.777344 419.035156 565.210938 C 419.148438 564.648438 419.203125 564.078125 419.203125 563.503906 L 419.203125 419.035156 C 419.203125 402.007812 432.832031 388.386719 449.871094 388.386719 C 466.910156 388.386719 480.539062 402.007812 480.539062 419.035156 L 480.539062 563.503906 C 480.539062 564.078125 480.59375 564.648438 480.707031 565.214844 C 480.820312 565.777344 480.984375 566.324219 481.207031 566.855469 C 481.425781 567.386719 481.695312 567.890625 482.015625 568.371094 C 482.335938 568.847656 482.699219 569.289062 483.105469 569.695312 C 483.511719 570.101562 483.953125 570.464844 484.433594 570.785156 C 484.910156 571.105469 485.417969 571.375 485.949219 571.59375 C 486.480469 571.8125 487.027344 571.980469 487.589844 572.09375 C 488.15625 572.203125 488.726562 572.261719 489.300781 572.261719 L 576.921875 572.261719 C 577.496094 572.261719 578.066406 572.203125 578.632812 572.09375 C 579.195312 571.980469 579.742188 571.8125 580.273438 571.59375 C 580.808594 571.375 581.3125 571.105469 581.789062 570.785156 C 582.269531 570.464844 582.710938 570.101562 583.117188 569.695312 C 583.523438 569.289062 583.886719 568.847656 584.207031 568.367188 C 584.527344 567.890625 584.796875 567.386719 585.015625 566.855469 C 585.238281 566.324219 585.402344 565.777344 585.515625 565.210938 C 585.628906 564.648438 585.683594 564.078125 585.683594 563.503906 L 585.683594 414.65625 C 585.683594 378.523438 575.0625 349.902344 557.15625 330.382812 C 539.25 310.859375 514.265625 300.832031 487.433594 300.832031 C 453.226562 300.832031 432.535156 313.316406 419.203125 323.609375 L 419.203125 309.585938 C 419.203125 309.011719 419.148438 308.441406 419.035156 307.878906 C 418.921875 307.3125 418.757812 306.765625 418.535156 306.234375 C 418.316406 305.703125 418.046875 305.199219 417.726562 304.722656 C 417.40625 304.242188 417.042969 303.800781 416.636719 303.394531 C 416.230469 302.988281 415.789062 302.625 415.308594 302.304688 C 414.832031 301.988281 414.324219 301.71875 413.792969 301.496094 C 413.261719 301.277344 412.714844 301.109375 412.152344 301 C 411.585938 300.886719 411.015625 300.832031 410.441406 300.832031 Z M 200.148438 318.34375 L 270.246094 318.34375 L 270.246094 554.75 L 200.148438 554.75 Z M 331.582031 318.34375 L 401.679688 318.34375 L 401.679688 341.445312 C 401.679688 342.332031 401.8125 343.199219 402.074219 344.042969 C 402.335938 344.890625 402.71875 345.675781 403.222656 346.40625 C 403.726562 347.136719 404.324219 347.773438 405.023438 348.324219 C 405.71875 348.871094 406.480469 349.304688 407.308594 349.621094 C 408.136719 349.9375 408.992188 350.125 409.875 350.179688 C 410.761719 350.238281 411.632812 350.164062 412.496094 349.957031 C 413.359375 349.746094 414.167969 349.417969 414.929688 348.964844 C 415.691406 348.511719 416.371094 347.953125 416.960938 347.292969 C 416.960938 347.292969 442.949219 318.34375 487.433594 318.34375 C 509.980469 318.34375 529.742188 326.417969 544.234375 342.214844 C 558.726562 358.011719 568.160156 381.921875 568.160156 414.65625 L 568.160156 554.75 L 498.0625 554.75 L 498.0625 419.035156 C 498.074219 417.785156 497.828125 416.585938 497.328125 415.441406 C 495.382812 390.699219 475.109375 370.875 449.871094 370.875 C 423.359375 370.875 401.679688 392.542969 401.679688 419.035156 L 401.679688 554.75 L 331.582031 554.75 Z M 331.582031 318.34375 "/>
</g>
</g>
</svg>
