<?xml version="1.0" encoding="UTF-8"?>
<svg xmlns="http://www.w3.org/2000/svg" xmlns:xlink="http://www.w3.org/1999/xlink" width="768pt" height="767.999994pt" viewBox="0 0 768 767.999994" version="1.2">
<defs>
<clipPath id="clip1">
  <path d="M 266.132812 207.085938 L 501.632812 207.085938 L 501.632812 561 L 266.132812 561 Z M 266.132812 207.085938 "/>
</clipPath>
</defs>
<g id="surface1">
<g clip-path="url(#clip1)" clip-rule="nonzero">
<path style=" stroke:none;fill-rule:nonzero;fill:rgb(0%,80.778503%,81.959534%);fill-opacity:1;" d="M 385 207.199219 L 382.761719 207.199219 C 318.453125 207.199219 266.132812 256.539062 266.132812 317.1875 L 266.132812 450.980469 C 266.132812 511.632812 318.453125 560.972656 382.761719 560.972656 L 385 560.972656 C 449.308594 560.972656 501.632812 511.632812 501.632812 450.984375 L 501.632812 317.1875 C 501.632812 256.539062 449.308594 207.199219 385 207.199219 Z M 489.855469 317.1875 L 489.855469 348.707031 L 389.769531 348.707031 L 389.769531 313 C 396.605469 310.707031 401.542969 304.617188 401.542969 297.40625 L 401.542969 259.878906 C 401.542969 252.667969 396.605469 246.578125 389.769531 244.285156 L 389.769531 219.214844 C 445.363281 221.574219 489.855469 264.550781 489.855469 317.1875 Z M 383.882812 255.058594 C 387.125 255.058594 389.769531 257.222656 389.769531 259.878906 L 389.769531 297.40625 C 389.769531 300.0625 387.125 302.226562 383.882812 302.226562 C 380.636719 302.226562 377.992188 300.0625 377.992188 297.40625 L 377.992188 259.878906 C 377.992188 257.214844 380.636719 255.058594 383.882812 255.058594 Z M 377.992188 219.214844 L 377.992188 244.285156 C 371.15625 246.578125 366.21875 252.667969 366.21875 259.878906 L 366.21875 297.40625 C 366.21875 304.617188 371.15625 310.707031 377.992188 313 L 377.992188 348.707031 L 277.90625 348.707031 L 277.90625 317.1875 C 277.90625 264.550781 322.398438 221.574219 377.992188 219.214844 Z M 385 549.183594 L 382.761719 549.183594 C 324.945312 549.183594 277.90625 505.132812 277.90625 450.984375 L 277.90625 360.5 L 489.855469 360.5 L 489.855469 450.984375 C 489.855469 505.132812 442.816406 549.183594 385 549.183594 Z M 385 549.183594 "/>
</g>
</g>
</svg>
