<?xml version="1.0" encoding="UTF-8"?>
<svg xmlns="http://www.w3.org/2000/svg" xmlns:xlink="http://www.w3.org/1999/xlink" width="768pt" height="767.999994pt" viewBox="0 0 768 767.999994" version="1.2">
<defs>
<clipPath id="clip1">
  <path d="M 205.183594 205.183594 L 562.933594 205.183594 L 562.933594 562.933594 L 205.183594 562.933594 Z M 205.183594 205.183594 "/>
</clipPath>
</defs>
<g id="surface1">
<g clip-path="url(#clip1)" clip-rule="nonzero">
<path style=" stroke:none;fill-rule:nonzero;fill:rgb(0%,80.778503%,81.959534%);fill-opacity:1;" d="M 497.261719 431.789062 C 473.886719 431.789062 453.339844 444.09375 441.726562 462.554688 L 332.628906 406.023438 C 335.078125 399.152344 336.425781 391.761719 336.425781 384.058594 C 336.425781 376.679688 335.183594 369.59375 332.925781 362.96875 L 443.1875 307.792969 C 455.019531 325.007812 474.839844 336.328125 497.261719 336.328125 C 533.417969 336.328125 562.835938 306.910156 562.835938 270.753906 C 562.835938 234.597656 533.417969 205.183594 497.261719 205.183594 C 461.105469 205.183594 431.691406 234.597656 431.691406 270.753906 C 431.691406 278.132812 432.933594 285.21875 435.1875 291.839844 L 324.925781 347.019531 C 313.097656 329.804688 293.273438 318.484375 270.851562 318.484375 C 234.695312 318.484375 205.28125 347.898438 205.28125 384.058594 C 205.28125 420.214844 234.695312 449.628906 270.851562 449.628906 C 292.945312 449.628906 312.503906 438.636719 324.390625 421.847656 L 434.371094 478.839844 C 432.636719 484.71875 431.691406 490.929688 431.691406 497.359375 C 431.691406 533.515625 461.105469 562.933594 497.261719 562.933594 C 533.417969 562.933594 562.835938 533.515625 562.835938 497.359375 C 562.835938 461.203125 533.417969 431.789062 497.261719 431.789062 Z M 497.261719 223.027344 C 523.582031 223.027344 544.992188 244.4375 544.992188 270.753906 C 544.992188 297.074219 523.582031 318.484375 497.261719 318.484375 C 470.945312 318.484375 449.53125 297.074219 449.53125 270.753906 C 449.53125 244.4375 470.945312 223.027344 497.261719 223.027344 Z M 270.851562 431.789062 C 244.535156 431.789062 223.121094 410.375 223.121094 384.058594 C 223.121094 357.738281 244.535156 336.328125 270.851562 336.328125 C 297.171875 336.328125 318.582031 357.738281 318.582031 384.058594 C 318.582031 410.375 297.171875 431.789062 270.851562 431.789062 Z M 497.261719 545.089844 C 470.945312 545.089844 449.53125 523.679688 449.53125 497.359375 C 449.53125 471.042969 470.945312 449.628906 497.261719 449.628906 C 523.582031 449.628906 544.992188 471.042969 544.992188 497.359375 C 544.992188 523.679688 523.582031 545.089844 497.261719 545.089844 Z M 497.261719 545.089844 "/>
</g>
</g>
</svg>
