<?xml version="1.0" encoding="UTF-8"?>
<svg xmlns="http://www.w3.org/2000/svg" xmlns:xlink="http://www.w3.org/1999/xlink" width="768pt" height="767.999994pt" viewBox="0 0 768 767.999994" version="1.2">
<defs>
<clipPath id="clip1">
  <path d="M 282.886719 199.316406 L 485.386719 199.316406 L 485.386719 568 L 282.886719 568 Z M 282.886719 199.316406 "/>
</clipPath>
</defs>
<g id="surface1">
<g clip-path="url(#clip1)" clip-rule="nonzero">
<path style=" stroke:none;fill-rule:nonzero;fill:rgb(0%,80.778503%,81.959534%);fill-opacity:1;" d="M 321.773438 567.730469 L 446.496094 567.730469 C 467.8125 567.730469 485.097656 550.488281 485.097656 529.511719 L 485.382812 238.40625 C 485.097656 217.140625 467.8125 199.898438 446.496094 199.898438 L 322.058594 199.898438 C 300.742188 199.898438 282.886719 217.140625 282.886719 238.117188 L 282.886719 529.222656 C 282.886719 550.488281 300.457031 567.730469 321.773438 567.730469 Z M 383.125 556.234375 C 373.621094 556.234375 365.84375 548.476562 365.84375 538.992188 C 365.84375 529.511719 373.621094 521.75 383.125 521.75 C 392.632812 521.75 400.410156 529.511719 400.410156 538.992188 C 400.410156 548.765625 392.632812 556.234375 383.125 556.234375 Z M 366.417969 222.886719 L 402.425781 222.886719 C 405.59375 222.886719 408.1875 225.476562 408.1875 228.636719 C 408.1875 231.796875 405.59375 234.382812 402.425781 234.382812 L 366.417969 234.382812 C 363.25 234.382812 360.660156 231.796875 360.660156 228.636719 C 360.660156 225.476562 363.25 222.886719 366.417969 222.886719 Z M 344.527344 224.613281 C 346.542969 222.601562 350.578125 222.3125 352.59375 224.613281 C 353.746094 225.761719 354.320312 227.199219 354.320312 228.636719 C 354.320312 230.074219 353.746094 231.507812 352.59375 232.660156 C 351.441406 233.808594 350 234.382812 348.558594 234.382812 C 347.121094 234.382812 345.679688 233.808594 344.527344 232.660156 C 343.375 231.507812 342.800781 230.074219 342.800781 228.636719 C 343.085938 227.199219 343.664062 225.761719 344.527344 224.613281 Z M 303.046875 254.5 L 467.238281 254.5 L 467.238281 510.257812 L 303.046875 510.257812 Z M 303.046875 254.5 "/>
</g>
</g>
</svg>
